<?xml version="1.0" encoding="utf-8"?>
<!-- Generator: Adobe Illustrator 21.0.0, SVG Export Plug-In . SVG Version: 6.00 Build 0)  -->
<svg version="1.1" id="Layer_1" xmlns="http://www.w3.org/2000/svg" xmlns:xlink="http://www.w3.org/1999/xlink" x="0px" y="0px"
	 viewBox="0 0 202 30" style="enable-background:new 0 0 202 30;" xml:space="preserve">
<style type="text/css">
	.st0{fill:#2ECB70;}
	.st1{fill:#313E48;}
	.st2{fill:#2EAAE2;}
	.st3{fill:#FFFFFF;}
	.st4{fill:#FFC600;}
</style>
<g>
	<path class="st0" d="M24.9,3.1h17c1.1,0,2,0.9,2,2v17c0,1.1-0.9,2-2,2h-17c-1.1,0-2-0.9-2-2v-17C22.9,4,23.8,3.1,24.9,3.1z"/>
	<path class="st1" d="M33,11.3c0,0.5-0.2,0.9-0.6,1.2l-0.4,0.3c-0.3,0.2-0.5,0.5-0.5,0.8V20c0,0.5-0.4,0.8-0.8,0.8c0,0,0,0,0,0h-0.3
		c-0.5,0-0.8-0.4-0.8-0.8c0,0,0,0,0,0v-6.4c0-0.3-0.2-0.6-0.5-0.8l-0.4-0.3c-0.4-0.2-0.6-0.7-0.6-1.2l0.4-4.6c0-0.2,0.1-0.3,0.3-0.3
		h0.2c0.2,0,0.3,0.1,0.3,0.3c0,0,0,0,0,0l0,3.5c0,0.1,0.1,0.2,0.2,0.2c0,0,0,0,0,0h0.2c0.1,0,0.2-0.1,0.2-0.2L30,6.7
		c0-0.2,0.1-0.3,0.3-0.3h0.3c0.2,0,0.3,0.1,0.3,0.3l0.2,3.5c0,0.1,0.1,0.2,0.2,0.2h0.3c0.1,0,0.2-0.1,0.2-0.2l0-3.5
		c0-0.2,0.1-0.3,0.3-0.3h0.2c0.2,0,0.3,0.1,0.3,0.3L33,11.3z"/>
	<path class="st1" d="M36.9,6.4c-0.8,0.1-1.5,0.8-1.5,1.7v5.2c0,0.6,0.4,1.2,0.9,1.5c0.2,0.1,0.3,0.3,0.4,0.5v4.6
		c0,0.5,0.4,0.8,0.8,0.8c0,0,0,0,0,0h0.3c0.5,0,0.8-0.4,0.8-0.8c0,0,0,0,0,0V8.1c0-0.9-0.7-1.6-1.6-1.6C37,6.4,36.9,6.4,36.9,6.4z"
		/>
	<path class="st2" d="M47.9,3.1h17c1.1,0,2,0.9,2,2v17c0,1.1-0.9,2-2,2h-17c-1.1,0-2-0.9-2-2v-17C45.9,4,46.8,3.1,47.9,3.1z"/>
	<path class="st1" d="M61.4,19.6c0.1-0.1,0.2-0.3,0.1-0.5c-0.2-1-1.2-5.5-1.5-6.9c-0.1-0.2,0-0.4,0.1-0.5c0.5-0.5,2.5-2.4,3-3
		C63.6,8.2,63.5,7.5,63,7c-0.5-0.4-1.2-0.4-1.7,0c-0.6,0.6-2.5,2.5-3,3c-0.1,0.1-0.3,0.2-0.5,0.1c-1.4-0.3-5.9-1.3-6.9-1.5
		c-0.2-0.1-0.4,0-0.5,0.1C50.2,9,50,9.2,49.7,9.5c-0.2,0.3-0.2,0.5,0.1,0.7c1.2,0.6,4.6,2.2,5.1,2.5c0.3,0.2,0.4,0.3,0.1,0.6
		c-0.5,0.7-1.4,1.7-2,2.4C53,15.8,52.8,16,52.6,16c-0.5-0.1-1-0.1-1.4-0.2c-0.2,0-0.4,0-0.5,0.2c-0.2,0.2-0.3,0.3-0.5,0.5
		c-0.2,0.2-0.2,0.5,0.1,0.6c0.5,0.3,1.1,0.6,1.6,0.9c0.1,0,0.1,0.1,0.2,0.1c0.1,0.1,0.1,0.1,0.1,0.2c0.3,0.5,0.6,1.1,0.9,1.6
		c0.1,0.3,0.4,0.3,0.6,0.1c0.2-0.2,0.3-0.3,0.5-0.5c0.1-0.1,0.2-0.3,0.2-0.5c-0.1-0.4-0.1-0.9-0.2-1.4c-0.1-0.3,0.1-0.4,0.3-0.6
		c0.7-0.6,1.7-1.4,2.4-2c0.3-0.2,0.4-0.2,0.6,0.1c0.3,0.5,1.8,3.9,2.5,5.1c0.2,0.3,0.4,0.4,0.7,0.1S61.1,19.9,61.4,19.6z"/>
	<polygon class="st3" points="68.8,24.1 83.3,24.1 83.3,19.8 74.1,19.8 74.1,15.7 81.9,15.7 81.9,11.3 74.1,11.3 74.1,7.4 83.3,7.4 
		83.3,3.1 68.8,3.1 	"/>
	<path class="st3" d="M111.9,7.5c-2.2,0-3.8,0.7-5,2.5h-0.1l-0.6-2h-3.9v21.9h5V23h0.1c0.9,1.1,2.4,1.6,4.3,1.6
		c4.4,0,7.6-3.8,7.6-8.3v-0.6C119.2,10.6,115.6,7.5,111.9,7.5z M110.6,20.4c-2.3,0-3.4-2-3.4-4.4c0-2.4,1.1-4.3,3.4-4.3
		s3.4,2,3.4,4.4C113.9,18.5,112.9,20.4,110.6,20.4L110.6,20.4z"/>
	<path class="st3" d="M136.4,15.5c0-5.4-3.8-8-8-8c-4.6,0-8.3,3.3-8.3,8.4v0.5c0,5.2,4,8.3,8.5,8.3c3.7,0,7-1.8,7.8-5.5h-4.7
		c-0.5,1.3-1.6,1.7-2.9,1.7c-2.1,0-3.3-1.5-3.5-3.5h11.1C136.3,16.9,136.4,16.1,136.4,15.5z M125.3,14c0.3-1.7,1.2-3,3.2-3
		c1.7,0,2.8,1.2,2.8,3H125.3z"/>
	<path class="st3" d="M147,7.5c-2.1,0-3.6,0.8-4.8,2.6h-0.1l-0.6-2.1h-3.9v16.1h5.1v-9.4c0-2.1,1-3.1,2.6-3.1c1.4,0,2.5,0.9,2.5,3.1
		v9.4h5.1V13.2C152.8,10.1,150.9,7.5,147,7.5z"/>
	<path class="st3" d="M160.5,13.7c-0.9-0.2-1.4-0.6-1.4-1.5c0-0.7,0.5-1.3,1.7-1.3c1.3,0,1.9,0.6,1.9,1.7h4.6v-0.4
		c0-3.4-3.1-4.8-6.6-4.8c-3.1,0-6.6,1.3-6.6,5.1v0.3c0,1.1,0.4,2.2,1.2,3c1.6,1.6,4.1,1.8,5.7,2.2c1.4,0.4,1.7,1,1.7,1.7
		c0,1-0.8,1.5-1.9,1.5c-1.4,0-2.2-0.8-2.3-2.3h-4.6v0.4c0.2,3.9,3.2,5.4,6.9,5.4c3.3,0,6.9-1.5,6.9-5.3v-0.3c0-1.1-0.4-2.2-1.1-3
		C165,14.3,162.5,14,160.5,13.7z"/>
	<rect x="168.6" y="7.9" class="st3" width="5.1" height="16.1"/>
	<polygon class="st3" points="101.2,7.9 95.6,7.9 92.9,12 90.2,7.9 84.4,7.9 89.9,15.6 83.6,24.1 89.3,24.1 92.7,19.2 96.1,24.1 
		101.9,24.1 95.7,15.4 	"/>
	<path class="st3" d="M171.2,0.1c-1.7,0-3,1.4-3,3s1.4,3,3,3c1.7,0,3-1.4,3-3c0,0,0,0,0,0C174.2,1.5,172.8,0.1,171.2,0.1
		C171.2,0.1,171.2,0.1,171.2,0.1z"/>
	<path class="st3" d="M182.9,7.9V7.4c0-1.4,0.9-2.7,2.5-2.8c0.2,0,1.5,0,1.5,0l0-4.5H185c-4.4,0.1-7.2,3.4-7.2,7.6v0.2h-3v3.9h3
		v12.3h5.1V11.8h3.3l4.3,11.2l-2.9,6.9h5.3L202,7.9h-5.3l-3.5,9.7L190,7.9L182.9,7.9z"/>
	<polygon class="st3" points="68.8,24.1 83.3,24.1 83.3,19.8 74.1,19.8 74.1,15.7 81.9,15.7 81.9,11.3 74.1,11.3 74.1,7.4 83.3,7.4 
		83.3,3.1 68.8,3.1 	"/>
	<path class="st3" d="M111.9,7.5c-2.2,0-3.8,0.7-5,2.5h-0.1l-0.6-2h-3.9v21.9h5V23h0.1c0.9,1.1,2.4,1.6,4.3,1.6
		c4.4,0,7.6-3.8,7.6-8.3v-0.6C119.2,10.6,115.6,7.5,111.9,7.5z M110.6,20.4c-2.3,0-3.4-2-3.4-4.4c0-2.4,1.1-4.3,3.4-4.3
		s3.4,2,3.4,4.4C113.9,18.5,112.9,20.4,110.6,20.4L110.6,20.4z"/>
	<path class="st3" d="M136.4,15.5c0-5.4-3.8-8-8-8c-4.6,0-8.3,3.3-8.3,8.4v0.5c0,5.2,4,8.3,8.5,8.3c3.7,0,7-1.8,7.8-5.5h-4.7
		c-0.5,1.3-1.6,1.7-2.9,1.7c-2.1,0-3.3-1.5-3.5-3.5h11.1C136.3,16.9,136.4,16.1,136.4,15.5z M125.3,14c0.3-1.7,1.2-3,3.2-3
		c1.7,0,2.8,1.2,2.8,3H125.3z"/>
	<path class="st3" d="M147,7.5c-2.1,0-3.6,0.8-4.8,2.6h-0.1l-0.6-2.1h-3.9v16.1h5.1v-9.4c0-2.1,1-3.1,2.6-3.1c1.4,0,2.5,0.9,2.5,3.1
		v9.4h5.1V13.2C152.8,10.1,150.9,7.5,147,7.5z"/>
	<path class="st3" d="M160.5,13.7c-0.9-0.2-1.4-0.6-1.4-1.5c0-0.7,0.5-1.3,1.7-1.3c1.3,0,1.9,0.6,1.9,1.7h4.6v-0.4
		c0-3.4-3.1-4.8-6.6-4.8c-3.1,0-6.6,1.3-6.6,5.1v0.3c0,1.1,0.4,2.2,1.2,3c1.6,1.6,4.1,1.8,5.7,2.2c1.4,0.4,1.7,1,1.7,1.7
		c0,1-0.8,1.5-1.9,1.5c-1.4,0-2.2-0.8-2.3-2.3h-4.6v0.4c0.2,3.9,3.2,5.4,6.9,5.4c3.3,0,6.9-1.5,6.9-5.3v-0.3c0-1.1-0.4-2.2-1.1-3
		C165,14.3,162.5,14,160.5,13.7z"/>
	<rect x="168.6" y="7.9" class="st3" width="5.1" height="16.1"/>
	<polygon class="st3" points="101.2,7.9 95.6,7.9 92.9,12 90.2,7.9 84.4,7.9 89.9,15.6 83.6,24.1 89.3,24.1 92.7,19.2 96.1,24.1 
		101.9,24.1 95.7,15.4 	"/>
	<path class="st3" d="M171.2,0.1c-1.7,0-3,1.4-3,3s1.4,3,3,3c1.7,0,3-1.4,3-3c0,0,0,0,0,0C174.2,1.5,172.8,0.1,171.2,0.1
		C171.2,0.1,171.2,0.1,171.2,0.1z"/>
	<path class="st3" d="M182.9,7.9V7.4c0-1.4,0.9-2.7,2.5-2.8c0.2,0,1.5,0,1.5,0l0-4.5H185c-4.4,0.1-7.2,3.4-7.2,7.6v0.2h-3v3.9h3
		v12.3h5.1V11.8h3.3l4.3,11.2l-2.9,6.9h5.3L202,7.9h-5.3l-3.5,9.7L190,7.9L182.9,7.9z"/>
	<path class="st4" d="M2,3.1h17c1.1,0,2,0.9,2,2v17c0,1.1-0.9,2-2,2H2c-1.1,0-2-0.9-2-2v-17C0,4,0.9,3.1,2,3.1z"/>
	<path class="st1" d="M18.2,11.2C18.1,11,17.9,11,17.7,11c-0.3,0-0.6,0-0.9,0c-0.2,0-0.3-0.1-0.4-0.3c-0.2-0.6-0.6-1.5-0.9-2.1
		c-0.3-0.7-0.9-1.3-1.7-1.3c-1.1,0-5.7,0-6.8,0C6.3,7.4,5.7,8,5.4,8.6c-0.3,0.6-0.6,1.4-0.9,2.1C4.5,10.9,4.4,11,4.2,11
		c-0.3,0-0.6,0-0.9,0c-0.2,0-0.4,0-0.5,0.2c-0.1,0.2-0.1,0.5,0.1,0.7c0.2,0.2,0.4,0.3,0.7,0.3s0.3,0.2,0.2,0.4
		c-0.3,0.6-0.4,2.3-0.4,3.2c0,1,0,2.2,0,3.3c0,0.6,0.2,0.7,0.7,0.7s1.3,0,1.9,0c0.4,0,0.6-0.3,0.6-0.7c0-0.3,0-0.8,0-1.1
		c0-0.3,0-0.5,0.4-0.5H14c0.3,0,0.4,0.1,0.4,0.5c0,0.3,0,0.8,0,1.1c0,0.4,0.2,0.7,0.6,0.7c0.5,0,1.4,0,1.9,0c0.5,0,0.7-0.2,0.7-0.7
		c0-1,0-2.2,0-3.3c0-0.9-0.1-2.6-0.4-3.2c-0.1-0.2,0-0.3,0.2-0.4s0.5-0.1,0.7-0.3C18.3,11.7,18.3,11.5,18.2,11.2z M5.9,15.7
		c-0.6,0-1-0.4-1-0.9c0,0,0-0.1,0-0.1c0-0.6,0.4-1.1,1-1.1s1.1,0.5,1.1,1.1C7,15.2,6.5,15.6,5.9,15.7C6,15.7,5.9,15.7,5.9,15.7z
		 M6,12.3c-0.6,0-0.6,0-0.4-0.7c0.2-0.7,0.4-1.3,0.6-1.9c0.3-0.8,0.6-1,1.3-1h5.8c0.7,0,1,0.3,1.3,1c0.2,0.6,0.4,1.3,0.6,1.9
		c0.2,0.7,0.2,0.7-0.4,0.7L6,12.3z M15.1,15.7c-0.6,0-1-0.4-1-1c0,0,0-0.1,0-0.1c0-0.6,0.4-1.1,1-1.1c0.7,0,1.1,0.4,1,1.1
		C16.1,15.2,15.7,15.6,15.1,15.7C15.1,15.7,15.1,15.7,15.1,15.7L15.1,15.7z"/>
</g>
</svg>
