<?xml version="1.0" encoding="utf-8"?>
<!-- Generator: Adobe Illustrator 21.0.0, SVG Export Plug-In . SVG Version: 6.00 Build 0)  -->
<svg version="1.1" id="Layer_1" xmlns="http://www.w3.org/2000/svg" xmlns:xlink="http://www.w3.org/1999/xlink" x="0px" y="0px"
	 viewBox="0 0 202 30" style="enable-background:new 0 0 202 30;" xml:space="preserve">
<style type="text/css">
	.st0{fill:#2ECB70;}
	.st1{fill:#313E48;}
	.st2{fill:#2EAAE2;}
	.st3{fill:#FFFFFF;}
	.st4{fill:#FFC600;}
</style>
<g>
	<path class="st0" d="M24.9,3.1h17c1.1,0,2,0.9,2,2v17c0,1.1-0.9,2-2,2h-17c-1.1,0-2-0.9-2-2v-17C22.9,4,23.8,3.1,24.9,3.1z"/>
	<path class="st1" d="M33,11.3c0,0.5-0.2,0.9-0.6,1.2l-0.4,0.3c-0.3,0.2-0.5,0.5-0.5,0.8V20c0,0.5-0.4,0.8-0.8,0.8c0,0,0,0,0,0h-0.3
		c-0.5,0-0.8-0.4-0.8-0.8c0,0,0,0,0,0v-6.4c0-0.3-0.2-0.6-0.5-0.8l-0.4-0.3c-0.4-0.2-0.6-0.7-0.6-1.2l0.4-4.6c0-0.2,0.1-0.3,0.3-0.3
		h0.2c0.2,0,0.3,0.1,0.3,0.3c0,0,0,0,0,0l0,3.5c0,0.1,0.1,0.2,0.2,0.2c0,0,0,0,0,0h0.2c0.1,0,0.2-0.1,0.2-0.2L30,6.7
		c0-0.2,0.1-0.3,0.3-0.3h0.3c0.2,0,0.3,0.1,0.3,0.3l0.2,3.5c0,0.1,0.1,0.2,0.2,0.2h0.3c0.1,0,0.2-0.1,0.2-0.2l0-3.5
		c0-0.2,0.1-0.3,0.3-0.3h0.2c0.2,0,0.3,0.1,0.3,0.3L33,11.3z"/>
	<path class="st1" d="M36.9,6.4c-0.8,0.1-1.5,0.8-1.5,1.7v5.2c0,0.6,0.4,1.2,0.9,1.5c0.2,0.1,0.3,0.3,0.4,0.5v4.6
		c0,0.5,0.4,0.8,0.8,0.8c0,0,0,0,0,0h0.3c0.5,0,0.8-0.4,0.8-0.8c0,0,0,0,0,0V8.1c0-0.9-0.7-1.6-1.6-1.6C37,6.4,36.9,6.4,36.9,6.4z"
		/>
	<path class="st2" d="M47.9,3.1h17c1.1,0,2,0.9,2,2v17c0,1.1-0.9,2-2,2h-17c-1.1,0-2-0.9-2-2v-17C45.9,4,46.8,3.1,47.9,3.1z"/>
	<path class="st1" d="M61.4,19.6c0.1-0.1,0.2-0.3,0.1-0.5c-0.2-1-1.2-5.5-1.5-6.9c-0.1-0.2,0-0.4,0.1-0.5c0.5-0.5,2.5-2.4,3-3
		C63.6,8.2,63.5,7.5,63,7c-0.5-0.4-1.2-0.4-1.7,0c-0.6,0.6-2.5,2.5-3,3c-0.1,0.1-0.3,0.2-0.5,0.1c-1.4-0.3-5.9-1.3-6.9-1.5
		c-0.2-0.1-0.4,0-0.5,0.1C50.2,9,50,9.2,49.7,9.5c-0.2,0.3-0.2,0.5,0.1,0.7c1.2,0.6,4.6,2.2,5.1,2.5c0.3,0.2,0.4,0.3,0.1,0.6
		c-0.5,0.7-1.4,1.7-2,2.4C53,15.8,52.8,16,52.6,16c-0.5-0.1-1-0.1-1.4-0.2c-0.2,0-0.4,0-0.5,0.2c-0.2,0.2-0.3,0.3-0.5,0.5
		c-0.2,0.2-0.2,0.5,0.1,0.6c0.5,0.3,1.1,0.6,1.6,0.9c0.1,0,0.1,0.1,0.2,0.1c0.1,0.1,0.1,0.1,0.1,0.2c0.3,0.5,0.6,1.1,0.9,1.6
		c0.1,0.3,0.4,0.3,0.6,0.1c0.2-0.2,0.3-0.3,0.5-0.5c0.1-0.1,0.2-0.3,0.2-0.5c-0.1-0.4-0.1-0.9-0.2-1.4c-0.1-0.3,0.1-0.4,0.3-0.6
		c0.7-0.6,1.7-1.4,2.4-2c0.3-0.2,0.4-0.2,0.6,0.1c0.3,0.5,1.8,3.9,2.5,5.1c0.2,0.3,0.4,0.4,0.7,0.1S61.1,19.9,61.4,19.6z"/>
	<path class="st4" d="M2,3.1h17c1.1,0,2,0.9,2,2v17c0,1.1-0.9,2-2,2H2c-1.1,0-2-0.9-2-2v-17C0,4,0.9,3.1,2,3.1z"/>
	<path class="st1" d="M18.2,11.2C18.1,11,17.9,11,17.7,11c-0.3,0-0.6,0-0.9,0c-0.2,0-0.3-0.1-0.4-0.3c-0.2-0.6-0.6-1.5-0.9-2.1
		c-0.3-0.7-0.9-1.3-1.7-1.3c-1.1,0-5.7,0-6.8,0C6.3,7.4,5.7,8,5.4,8.6c-0.3,0.6-0.6,1.4-0.9,2.1C4.5,10.9,4.4,11,4.2,11
		c-0.3,0-0.6,0-0.9,0c-0.2,0-0.4,0-0.5,0.2c-0.1,0.2-0.1,0.5,0.1,0.7c0.2,0.2,0.4,0.3,0.7,0.3s0.3,0.2,0.2,0.4
		c-0.3,0.6-0.4,2.3-0.4,3.2c0,1,0,2.2,0,3.3c0,0.6,0.2,0.7,0.7,0.7s1.3,0,1.9,0c0.4,0,0.6-0.3,0.6-0.7c0-0.3,0-0.8,0-1.1
		c0-0.3,0-0.5,0.4-0.5H14c0.3,0,0.4,0.1,0.4,0.5c0,0.3,0,0.8,0,1.1c0,0.4,0.2,0.7,0.6,0.7c0.5,0,1.4,0,1.9,0c0.5,0,0.7-0.2,0.7-0.7
		c0-1,0-2.2,0-3.3c0-0.9-0.1-2.6-0.4-3.2c-0.1-0.2,0-0.3,0.2-0.4s0.5-0.1,0.7-0.3C18.3,11.7,18.3,11.5,18.2,11.2z M5.9,15.7
		c-0.6,0-1-0.4-1-0.9c0,0,0-0.1,0-0.1c0-0.6,0.4-1.1,1-1.1s1.1,0.5,1.1,1.1C7,15.2,6.5,15.6,5.9,15.7C6,15.7,5.9,15.7,5.9,15.7z
		 M6,12.3c-0.6,0-0.6,0-0.4-0.7c0.2-0.7,0.4-1.3,0.6-1.9c0.3-0.8,0.6-1,1.3-1h5.8c0.7,0,1,0.3,1.3,1c0.2,0.6,0.4,1.3,0.6,1.9
		c0.2,0.7,0.2,0.7-0.4,0.7L6,12.3z M15.1,15.7c-0.6,0-1-0.4-1-1c0,0,0-0.1,0-0.1c0-0.6,0.4-1.1,1-1.1c0.7,0,1.1,0.4,1,1.1
		C16.1,15.2,15.7,15.6,15.1,15.7C15.1,15.7,15.1,15.7,15.1,15.7L15.1,15.7z"/>
</g>
</svg>
